<svg width="375" height="377" viewBox="0 0 375 377" fill="none" xmlns="http://www.w3.org/2000/svg">
<g filter="url(#filter0_i_1017_1942)">
<circle cx="187.5" cy="189.5" r="187.5" fill="#F6F6E6"/>
</g>
<g filter="url(#filter1_i_1017_1942)">
<path d="M38.2 271.095L43.81 269.82C49.59 267.95 53.415 265.655 55.285 262.935C57.325 260.215 58.345 255.37 58.345 248.4V134.16C58.345 132.12 57.92 130.76 57.07 130.08C56.39 129.23 55.2 128.805 53.5 128.805H39.985L37.18 120.135C43.81 117.585 52.565 115.29 63.445 113.25C74.325 111.04 84.695 109.935 94.555 109.935C115.805 109.935 131.53 114.185 141.73 122.685C151.93 131.015 157.03 141.895 157.03 155.325C157.03 163.995 154.99 171.9 150.91 179.04C147 186.01 140.965 191.365 132.805 195.105C143.005 198.505 150.995 203.69 156.775 210.66C162.555 217.46 165.445 225.025 165.445 233.355C165.445 247.465 160.685 258.6 151.165 266.76C141.815 274.92 126.685 279 105.775 279H41.26L38.2 271.095ZM107.05 267.015C117.76 267.015 126.175 263.87 132.295 257.58C138.415 251.12 141.475 242.705 141.475 232.335C141.475 223.325 138.16 215.76 131.53 209.64C125.07 203.35 116.315 200.205 105.265 200.205C99.315 200.205 94.13 199.27 89.71 197.4C87.5 196.21 86.395 194.425 86.395 192.045C86.395 189.495 87.415 188.22 89.455 188.22C90.305 188.22 91.75 188.39 93.79 188.73C95.83 189.07 98.295 189.24 101.185 189.24C111.555 189.24 119.63 186.265 125.41 180.315C131.36 174.195 134.335 166.035 134.335 155.835C134.335 145.975 131.02 137.985 124.39 131.865C117.93 125.745 108.835 122.685 97.105 122.685C86.735 122.685 81.55 126.34 81.55 133.65V236.67C81.55 249.42 84.015 257.665 88.945 261.405C94.045 265.145 100.08 267.015 107.05 267.015ZM188.361 275.175L191.421 271.095C195.331 265.995 198.051 260.64 199.581 255.03C201.281 249.42 202.131 241.94 202.131 232.59V159.405C202.131 150.395 201.281 143.085 199.581 137.475C198.051 131.695 195.331 126.255 191.421 121.155L188.361 116.82L191.421 113.25H326.826L329.886 116.82L326.826 121.155C322.916 126.085 320.111 131.44 318.411 137.22C316.881 142.83 316.116 150.225 316.116 159.405V249.93C316.116 256.56 317.051 261.235 318.921 263.955C320.791 266.505 324.616 268.63 330.396 270.33L335.241 271.605L332.691 279H276.336L273.276 271.095L278.631 269.82C284.581 267.95 288.491 265.74 290.361 263.19C292.401 260.47 293.421 255.54 293.421 248.4V143.85C293.421 136.71 292.401 131.95 290.361 129.57C288.491 127.19 284.581 126 278.631 126H239.361C233.411 126 229.501 127.19 227.631 129.57C225.761 131.95 224.826 136.71 224.826 143.85V248.4C224.826 255.54 225.761 260.47 227.631 263.19C229.501 265.74 233.411 267.95 239.361 269.82L244.971 271.095L242.166 279H191.421L188.361 275.175Z" fill="black"/>
</g>
<defs>
<filter id="filter0_i_1017_1942" x="0" y="-12" width="375" height="389" filterUnits="userSpaceOnUse" color-interpolation-filters="sRGB">
<feFlood flood-opacity="0" result="BackgroundImageFix"/>
<feBlend mode="normal" in="SourceGraphic" in2="BackgroundImageFix" result="shape"/>
<feColorMatrix in="SourceAlpha" type="matrix" values="0 0 0 0 0 0 0 0 0 0 0 0 0 0 0 0 0 0 127 0" result="hardAlpha"/>
<feMorphology radius="3" operator="erode" in="SourceAlpha" result="effect1_innerShadow_1017_1942"/>
<feOffset dy="-14"/>
<feGaussianBlur stdDeviation="8"/>
<feComposite in2="hardAlpha" operator="arithmetic" k2="-1" k3="1"/>
<feColorMatrix type="matrix" values="0 0 0 0 0 0 0 0 0 0 0 0 0 0 0 0 0 0 0.25 0"/>
<feBlend mode="normal" in2="shape" result="effect1_innerShadow_1017_1942"/>
</filter>
<filter id="filter1_i_1017_1942" x="37.1802" y="109.935" width="298.061" height="173.065" filterUnits="userSpaceOnUse" color-interpolation-filters="sRGB">
<feFlood flood-opacity="0" result="BackgroundImageFix"/>
<feBlend mode="normal" in="SourceGraphic" in2="BackgroundImageFix" result="shape"/>
<feColorMatrix in="SourceAlpha" type="matrix" values="0 0 0 0 0 0 0 0 0 0 0 0 0 0 0 0 0 0 127 0" result="hardAlpha"/>
<feOffset dy="4"/>
<feGaussianBlur stdDeviation="2"/>
<feComposite in2="hardAlpha" operator="arithmetic" k2="-1" k3="1"/>
<feColorMatrix type="matrix" values="0 0 0 0 0 0 0 0 0 0 0 0 0 0 0 0 0 0 0.25 0"/>
<feBlend mode="normal" in2="shape" result="effect1_innerShadow_1017_1942"/>
</filter>
</defs>
</svg>
