<svg width="50" height="50" viewBox="0 0 50 50" fill="none" xmlns="http://www.w3.org/2000/svg">
<circle cx="25" cy="25" r="25" fill="#7294C7"/>
<path d="M37.2579 31.3938C37.2579 31.29 37.1541 31.29 37.1541 31.1863C36.739 30.356 35.805 29.3183 34.5596 28.1767C33.937 27.6578 33.6256 27.2427 33.4181 27.0351C33.1067 26.62 33.1067 26.3087 33.2105 25.8936C33.3143 25.5822 33.7294 25.0633 34.4559 24.1293C34.871 23.6104 35.0785 23.2991 35.3899 22.9878C36.9465 20.9122 37.673 19.5631 37.4654 18.9404L37.3617 18.8366C37.2579 18.7328 37.1541 18.6291 36.9465 18.6291C36.739 18.5253 36.4277 18.5253 36.1163 18.6291H32.1727C32.069 18.6291 32.0689 18.6291 31.8614 18.6291C31.7576 18.6291 31.6538 18.6291 31.6538 18.6291H31.5501H31.4463L31.3425 18.7328C31.2387 18.8366 31.2387 18.8366 31.2387 18.9404C30.8236 20.0819 30.3047 21.016 29.7858 22.0537C29.4745 22.5726 29.1631 23.0915 28.8518 23.5067C28.5405 23.9218 28.3329 24.2331 28.1253 24.4407C27.9178 24.6482 27.7102 24.752 27.6065 24.9595C27.5027 25.0633 27.2951 25.1671 27.2951 25.0633C27.1914 25.0633 27.0876 25.0633 27.0876 24.9595C26.9838 24.8558 26.88 24.752 26.7762 24.6482C26.6725 24.5444 26.6724 24.3369 26.5687 24.1293C26.5687 23.9218 26.5687 23.7142 26.5687 23.6104C26.5687 23.5066 26.5687 23.1953 26.5687 22.9878C26.5687 22.6764 26.5687 22.4689 26.5687 22.3651C26.5687 22.0537 26.5687 21.6386 26.5687 21.2235C26.5687 20.8084 26.5687 20.4971 26.5687 20.2895C26.5687 20.082 26.5687 19.7706 26.5687 19.5631C26.5687 19.2517 26.5687 19.0442 26.5687 18.9404C26.5687 18.8366 26.4649 18.6291 26.4649 18.5253C26.3611 18.4215 26.2573 18.3177 26.1536 18.2139C26.0498 18.1102 25.8422 18.1102 25.7385 18.0064C25.2196 17.9026 24.5969 17.7988 23.8704 17.7988C22.21 17.7988 21.0684 17.9026 20.6533 18.1102C20.4457 18.2139 20.2382 18.3177 20.1344 18.5253C19.9269 18.7328 19.9268 18.8366 20.0306 18.8366C20.5495 18.9404 20.9646 19.1479 21.1722 19.4593L21.276 19.6668C21.3798 19.7706 21.3797 19.9782 21.4835 20.2895C21.5873 20.6008 21.5873 20.9122 21.5873 21.3273C21.5873 21.95 21.5873 22.5726 21.5873 22.9878C21.5873 23.5067 21.4835 23.818 21.4835 24.1293C21.4835 24.4407 21.3798 24.6482 21.276 24.752C21.1722 24.9596 21.1722 25.0633 21.0684 25.0633C21.0684 25.0633 21.0684 25.1671 20.9646 25.1671C20.8608 25.1671 20.7571 25.2709 20.5495 25.2709C20.4457 25.2709 20.2382 25.1671 20.1344 25.0633C19.9269 24.9596 19.7193 24.752 19.6155 24.5444C19.408 24.3369 19.2004 24.0255 18.9928 23.6104C18.7853 23.1953 18.4739 22.7802 18.2664 22.1575L18.0588 21.7424C17.9551 21.5349 17.7475 21.1197 17.5399 20.6008C17.3324 20.082 17.1248 19.6668 16.9173 19.148C16.8135 18.9404 16.7097 18.8366 16.6059 18.7328H16.5022C16.5022 18.7328 16.3984 18.6291 16.2946 18.6291C16.1908 18.6291 16.087 18.5253 15.9833 18.5253H12.2472C11.8321 18.5253 11.6246 18.6291 11.5208 18.7328L11.417 18.8366C11.417 18.8366 11.417 18.9404 11.417 19.0442C11.417 19.1479 11.417 19.2517 11.5208 19.4593C12.0397 20.7046 12.6623 21.95 13.285 23.1953C13.9077 24.3369 14.5304 25.3747 14.9455 26.1011C15.4644 26.8276 15.8795 27.554 16.3984 28.1767C16.9173 28.7994 17.2286 29.2145 17.3324 29.422C17.5399 29.6296 17.6437 29.7334 17.7475 29.8371L18.0588 30.1485C18.2664 30.356 18.5777 30.6674 18.9928 30.9787C19.408 31.2901 19.9268 31.6014 20.4457 31.9127C20.9646 32.2241 21.5873 32.4316 22.21 32.6392C22.9364 32.8467 23.5591 32.9505 24.1818 32.8467H25.7385C26.0498 32.8467 26.2574 32.743 26.4649 32.5354L26.5687 32.4316C26.5687 32.3278 26.6725 32.3278 26.6725 32.2241C26.6725 32.1203 26.6725 32.0165 26.6725 31.8089C26.6725 31.3938 26.6725 31.0825 26.7762 30.7712C26.88 30.4598 26.88 30.2523 26.9838 30.0447C27.0876 29.8372 27.1914 29.7334 27.2951 29.6296C27.3989 29.5258 27.5027 29.422 27.5027 29.422H27.6065C27.814 29.3183 28.1254 29.422 28.3329 29.6296C28.6443 29.8371 28.9556 30.1485 29.1631 30.4598C29.3707 30.7712 29.6821 31.0825 30.0972 31.4976C30.5123 31.9127 30.8236 32.2241 31.0312 32.3278L31.3425 32.5354C31.55 32.6392 31.7576 32.743 32.069 32.8467C32.3803 32.9505 32.5878 32.9505 32.7954 32.9505L36.3239 32.8467C36.6352 32.8467 36.9465 32.743 37.1541 32.6392C37.3617 32.5354 37.4654 32.4316 37.4654 32.2241C37.4654 32.1203 37.4654 31.9127 37.4654 31.8089C37.2579 31.6014 37.2579 31.4976 37.2579 31.3938Z" fill="white"/>
</svg>
